<svg width="16" height="16" viewBox="0 0 16 16" fill="none" xmlns="http://www.w3.org/2000/svg">
<path d="M8 15.2148C11.917 15.2148 15.1436 11.9814 15.1436 8.06445C15.1436 4.14746 11.9102 0.920898 8 0.920898C4.08301 0.920898 0.856445 4.14746 0.856445 8.06445C0.856445 11.9814 4.08301 15.2148 8 15.2148ZM8 13.6084C4.93066 13.6084 2.46973 11.1338 2.46973 8.06445C2.46973 4.99512 4.92383 2.52734 8 2.52734C11.0693 2.52734 13.5371 4.99512 13.5439 8.06445C13.5439 11.1338 11.0693 13.6084 8 13.6084ZM7.27539 11.3252C7.53516 11.3252 7.76758 11.1885 7.9248 10.9561L10.9805 6.24609C11.0762 6.0957 11.1514 5.9248 11.1514 5.76758C11.1514 5.39844 10.8232 5.13867 10.4678 5.13867C10.2422 5.13867 10.0439 5.26855 9.88672 5.52148L7.25488 9.71191L6.04492 8.20117C5.88086 7.98926 5.70996 7.91406 5.49121 7.91406C5.12891 7.91406 4.83496 8.20117 4.83496 8.57031C4.83496 8.74805 4.89648 8.90527 5.02637 9.06934L6.59863 10.9629C6.79004 11.2021 7.00195 11.3252 7.27539 11.3252Z" fill="#56C0C1"/>
</svg>
