<svg width="20" height="16" viewBox="0 0 20 16" fill="none" xmlns="http://www.w3.org/2000/svg">
<path d="M17.494 2.89652C17.0623 2.42207 16.5499 2.0457 15.9859 1.78892C15.4218 1.53213 14.8173 1.39996 14.2067 1.39996C13.5962 1.39996 12.9917 1.53213 12.4276 1.78892C11.8636 2.0457 11.3511 2.42207 10.9195 2.89652V2.89652C10.4391 3.42445 9.60853 3.42445 9.12805 2.89652V2.89652C8.25622 1.93861 7.07378 1.40046 5.84084 1.40046C4.60789 1.40046 3.42545 1.93861 2.55362 2.89652C1.6818 3.85443 1.19202 5.15364 1.19202 6.50833C1.19202 7.86302 1.6818 9.16223 2.55362 10.1201L3.44937 11.1043V11.1043C6.97593 14.9791 13.0717 14.9791 16.5982 11.1043V11.1043L17.494 10.1201C17.9258 9.64592 18.2683 9.08285 18.502 8.46313C18.7357 7.8434 18.856 7.17915 18.856 6.50833C18.856 5.83751 18.7357 5.17327 18.502 4.55354C18.2683 3.93381 17.9258 3.37075 17.494 2.89652Z" stroke="#BFC2C8" stroke-width="2" stroke-linecap="round" stroke-linejoin="round"/>
</svg>
