<svg width="20" height="19" viewBox="0 0 20 19" fill="none" xmlns="http://www.w3.org/2000/svg">
<path d="M7.98315 18.1439C8.42658 18.1439 8.78605 17.7909 8.78605 17.3553C8.78605 16.9198 8.42658 16.5668 7.98315 16.5668C7.53971 16.5668 7.18024 16.9198 7.18024 17.3553C7.18024 17.7909 7.53971 18.1439 7.98315 18.1439Z" fill="#BFC2C8" stroke="#BFC2C8" stroke-width="1.5" stroke-linecap="round" stroke-linejoin="round"/>
<path d="M16.8152 18.1439C17.2586 18.1439 17.6181 17.7909 17.6181 17.3553C17.6181 16.9198 17.2586 16.5668 16.8152 16.5668C16.3717 16.5668 16.0123 16.9198 16.0123 17.3553C16.0123 17.7909 16.3717 18.1439 16.8152 18.1439Z" fill="#BFC2C8" stroke="#BFC2C8" stroke-width="1.5" stroke-linecap="round" stroke-linejoin="round"/>
<path d="M1.56 1.58392V1.58392C3.429 1.58392 5.03974 2.89952 5.41295 4.73088L6.92343 12.1429C6.99685 12.506 7.19795 12.8321 7.49152 13.0642C7.7851 13.2963 8.15244 13.4196 8.52925 13.4125H16.3335C16.7103 13.4196 17.0777 13.2963 17.3712 13.0642C17.6648 12.8321 17.8659 12.506 17.9393 12.1429V12.1429C18.6053 8.71301 15.9783 5.52678 12.4843 5.52678H5.57454" stroke="#BFC2C8" stroke-width="2" stroke-linecap="round" stroke-linejoin="round"/>
</svg>
