<svg width="5" height="22" viewBox="0 0 5 22" fill="none" xmlns="http://www.w3.org/2000/svg">
<path fill-rule="evenodd" clip-rule="evenodd" d="M2.19048 13.1429C3.40024 13.1429 4.38095 12.1622 4.38095 10.9524C4.38095 9.74264 3.40024 8.76193 2.19048 8.76193C0.98071 8.76193 0 9.74264 0 10.9524C0 12.1622 0.98071 13.1429 2.19048 13.1429Z" fill="#08293B"/>
<path fill-rule="evenodd" clip-rule="evenodd" d="M2.19048 4.38095C3.40024 4.38095 4.38095 3.40024 4.38095 2.19048C4.38095 0.98071 3.40024 0 2.19048 0C0.98071 0 0 0.98071 0 2.19048C0 3.40024 0.98071 4.38095 2.19048 4.38095Z" fill="#08293B"/>
<path fill-rule="evenodd" clip-rule="evenodd" d="M2.19048 21.9048C3.40024 21.9048 4.38095 20.9241 4.38095 19.7143C4.38095 18.5045 3.40024 17.5238 2.19048 17.5238C0.98071 17.5238 0 18.5045 0 19.7143C0 20.9241 0.98071 21.9048 2.19048 21.9048Z" fill="#08293B"/>
</svg>
